<?xml version="1.0" encoding="UTF-8"?><svg id="Layer_1" xmlns="http://www.w3.org/2000/svg" viewBox="0 0 1080 1080"><defs><style>.cls-1{fill:#f5b21f;}</style></defs><path class="cls-1" d="M569.36,930.51h-62.11c-14.38,0-26.03,11.64-26.03,26.01s11.65,26.03,26.03,26.03h62.11c14.36,0,26.02-11.65,26.02-26.03s-11.65-26.01-26.02-26.01Z"/><path class="cls-1" d="M395.04,606.62c52.23,0,98.03-28.63,124.39-71.77h36.35c26.34,43.14,72.16,71.77,124.38,71.77,81.76,0,148.03-69.98,148.03-156.3,0-78.03-54.23-142.52-125.01-154.22-7.52-1.25-15.17-2.08-23.01-2.08H395.04c-81.74,0-148.02,69.98-148.02,156.3s66.28,156.3,148.02,156.3Zm329.53-177.79c2.45,7.17,8.68,12.54,16.33,13.75-7.65,1.21-13.89,6.6-16.33,13.75-2.43-7.15-8.67-12.54-16.32-13.75,7.65-1.21,13.89-6.58,16.32-13.75Zm-33.1-34.22c1.9,5.61,6.81,9.84,12.8,10.78-6,.95-10.9,5.17-12.8,10.79-1.93-5.62-6.82-9.84-12.81-10.79,5.99-.94,10.88-5.17,12.81-10.78Zm-5.81,58.72c3.95,11.6,14.05,20.3,26.42,22.25-12.37,1.95-22.47,10.67-26.42,22.25-3.95-11.57-14.06-20.29-26.43-22.25,12.37-1.95,22.49-10.65,26.43-22.25Zm-40.01-33.3c3.5,10.28,12.44,17.98,23.4,19.72-10.96,1.72-19.91,9.45-23.4,19.7-3.5-10.25-12.45-17.98-23.41-19.7,10.96-1.74,19.91-9.44,23.41-19.72Zm-176.98-55.26c2.39,7.02,8.49,12.28,15.99,13.48-7.5,1.18-13.6,6.45-15.99,13.44-2.39-6.99-8.49-12.27-15.99-13.44,7.5-1.19,13.61-6.46,15.99-13.48Zm-98.66,33.47c9.61,28.22,34.21,49.42,64.33,54.16-30.12,4.78-54.72,25.98-64.33,54.2-9.62-28.22-34.22-49.42-64.35-54.2,30.13-4.74,54.73-25.94,64.35-54.16Z"/><path class="cls-1" d="M970.43,799.76c-.61-1.99-1.25-3.99-1.96-6.03-.56-1.68-1.16-3.34-1.79-5.01-.99-2.54-2.08-5.15-3.24-7.77-.67-1.48-1.37-2.93-2.08-4.38-1.21-2.52-2.53-5.06-3.92-7.63-.31-.55-.58-1.11-.89-1.65-2.01-3.58-4.26-7.2-6.64-10.86-.03-.05-.07-.09-.1-.14-32.97-41.66-62-45.03-71.06-50.34-.12-.13-.24-.26-.37-.38-10.2-10.42-22.51-20.94-37.41-31.35,28.56-5.08,60.19-26.31,60.19-26.31,47.02-30.35,81.05-118.89,81.05-223.41,0-125.4-48.94-227.8-110.53-234.35C802.34,76.16,680.11,.35,540.72,0c-.5,0-.84,0-1.28,0-3.29,0-6.58,.18-9.84,.26-.8,.03-1.62,.05-2.42,.12l.67-.09c-86.05,2.69-165.04,34.2-228.52,85.43V53.66c0-25.01-20.33-47.95-45.27-49.72-28.62-2.04-52.43,20.59-52.43,48.74V191.87c-58.42,13.43-103.82,113-103.82,233.99,0,86.63,23.29,162.29,57.95,203.23,3.17,9.14,7.89,20.28,13.22,31.78l25.4,49.56c-45.3,37.3-90.37,84.2-90.37,128.76,0,132.98,195.29,240.8,436.18,240.8,224.69,0,409.6-93.81,433.48-214.34,1.72-8.7,2.7-17.52,2.7-26.46,0-11.78-1.62-23.34-4.57-34.66-.41-1.6-.87-3.19-1.35-4.78ZM147.44,437.08c0-105.54,37.72-193.02,87.1-209.25v-90.73c-6.78-4.7-11.24-12.51-11.24-21.38V54.26c0-13.36,9.79-25.08,23.06-26.54,15.7-1.73,28.98,10.52,28.98,25.87v62.11c0,8.89-4.48,16.72-11.29,21.41v55.93c24.12-31.7,44.2-51.33,44.2-51.33,78.05-70.23,152.08-87.15,224.39-87.15-.34,0-.67,.05-1.01,.05,1.73-.06,3.45-.13,5.19-.14,.61,.01,1.1,0,1.77,.02,123.04,.48,230.91,68.63,292.12,171.01,54.45,5.9,97.72,98,97.72,210.78,0,99.67-33.82,183.16-79.27,205.29-4.53,2.21-9.17,3.8-13.91,4.76-3.01,.55-6.05,.83-9.12,.83h-111.74c-36.7,0-66.45,29.75-66.45,66.46l-.17,4.1c0,26.72-21.66,48.38-48.39,48.38h-.21c-4.55-7.59-12.77-12.72-22.26-12.72h-61.45c-13.37,0-25.09,9.81-26.53,23.11-1.69,15.69,10.55,28.93,25.88,28.93h62.1c10.82,0,20.08-6.59,24.01-15.99l3.62-.1c36.73,0,66.46-29.74,66.46-66.45l.15-4.12c0-26.71,21.68-46.38,48.39-46.38h37.95c-24.5,104.99-113.32,183.19-219.8,185.43,.08,0,.15,0,.23,.01-1.47,.03-2.94,.05-4.42,.05-18.88,0-37.21-2.42-54.78-6.92-168.27-35.38-246.2-131.74-280.06-231.08-30.65-36.83-51.23-104.89-51.23-182.81Zm391.36,588.12c-212.99,0-385.66-97-385.66-216.61,0-26.41,22.51-63.27,44.79-92.3,61.94,99.44,168.46,165.16,289.61,165.16,74.17,0,142.84-24.7,199.2-66.6,1.82-1.05,3.65-2.07,5.46-3.15,0,0,217.87-134.13,229.68,21.37,0,0,.08-.23,.2-.66-21.13,108.4-184.63,192.78-383.28,192.78Z"/><path class="cls-1" d="M641.98,930.73c-17.07-2.2-31.46,12.16-29.27,29.22,1.49,11.59,10.86,20.94,22.46,22.38,16.99,2.12,31.25-12.15,29.16-29.14-1.43-11.59-10.76-20.97-22.35-22.47Z"/><path class="cls-1" d="M440.14,930.73c-17.08-2.18-31.43,12.19-29.22,29.25,1.5,11.59,10.87,20.93,22.47,22.36,17,2.1,31.25-12.18,29.14-29.18-1.44-11.59-10.79-20.96-22.38-22.44Z"/></svg>