<?xml version="1.0" encoding="UTF-8"?><svg id="Layer_1" xmlns="http://www.w3.org/2000/svg" viewBox="0 0 1080 1080"><defs><style>.cls-1{fill:#29a9e1;}</style></defs><path class="cls-1" d="M962.81,521.43c-102.23-48.44-224.38-4.82-272.82,97.42-7.06,14.92-12.11,30.28-15.37,45.75l118.87,56.33c-2.9-16.36-.99-33.73,6.67-49.89,19.61-41.4,69.06-59.06,110.44-39.44,41.41,19.62,59.07,69.07,39.45,110.46-19.48,41.12-68.41,58.77-109.63,39.78l-219.51-103.99,.04-.09-.47-.21,108.08-228.19c40.1-99.75-3.94-214.71-102.39-261.33-102.23-48.45-224.38-4.83-272.82,97.41-48.43,102.22-4.82,224.37,97.41,272.81,14.94,7.08,30.29,12.12,45.77,15.39l56.32-118.88c-16.36,2.89-33.74,.98-49.89-6.67-41.4-19.61-59.05-69.06-39.44-110.45,19.62-41.4,69.07-59.06,110.46-39.44,41.12,19.48,58.77,68.41,39.78,109.62l-103.14,217.7-229.52-108.71c-99.75-40.11-214.71,3.94-261.34,102.39-48.44,102.23-4.83,224.38,97.4,272.82,102.24,48.43,224.38,4.82,272.83-97.42,7.07-14.93,12.12-30.28,15.38-45.76l-118.88-56.32c2.89,16.36,.98,33.74-6.67,49.89-19.61,41.4-69.06,59.05-110.44,39.44-41.4-19.62-59.06-69.07-39.45-110.46,19.48-41.12,68.41-58.77,109.63-39.78l219.04,103.77-.04,.08,109.86,52.05v-.02s230.46,109.16,230.46,109.16c99.74,40.11,214.71-3.95,261.34-102.39,48.44-102.23,4.83-224.37-97.41-272.82Z"/></svg>