<?xml version="1.0" encoding="UTF-8"?><svg id="Layer_1" xmlns="http://www.w3.org/2000/svg" xmlns:xlink="http://www.w3.org/1999/xlink" viewBox="0 0 1080 1080"><defs><style>.cls-1{fill:none;}.cls-2{clip-path:url(#clippath);}.cls-3{fill:#fff;}.cls-4{fill:#9cc63b;}</style><clipPath id="clippath"><rect class="cls-1" y="195.65" width="1080" height="688.7"/></clipPath></defs><g class="cls-2"><g><path class="cls-3" d="M414.17,195.65C209.51,195.65,0,367.82,0,725.48H174.27c8.16-41.09,19.6-78.66,33.84-112.77-35.67,.14-54.37,.35-54.37,.35,0-205.89,170.46-305,275.97-305h338.04c0,17.42-1.22,34-3.45,49.84-6.11,42.93-20.03,80.07-39.27,111.71-59.77,98.27-170.85,143.45-258.71,143.45-39.45-.21-75.45-.35-107.88-.42-20.5,32.1-35.53,69.66-41.93,112.84h162.8c199.08,0,338.04-77.11,402.12-255.87,12.05-33.58,21.47-70.76,28.12-111.71,7.91-48.68,11.97-102.68,11.97-162.25H414.17Z"/><path class="cls-4" d="M909.51,357.91c-6.65,40.95-16.07,78.09-28.12,111.71h198.62v-111.71h-170.5Z"/><path class="cls-4" d="M930.9,772.64H313.05c0-16.4,1.19-32.13,3.45-47.19,6.4-43.17,21.47-80.78,41.93-112.84,61.39-96.19,171.57-143.03,244.21-143.03h122.38c19.24-31.64,33.16-68.78,39.27-111.71h-182c-159.89,0-302.62,83.46-374.18,254.81-14.24,34.07-25.64,71.67-33.84,112.77-9.57,48.11-14.74,101.06-14.74,158.87h920.19v-300.66h-148.81v188.99h0Z"/></g></g></svg>